<svg width="1311" height="333" viewBox="0 0 1311 333" fill="none" xmlns="http://www.w3.org/2000/svg">
<path fill-rule="evenodd" clip-rule="evenodd" d="M292.75 0H397V8H405.25V18.75H367.75V131.25H330.25V18.75H292.75V0ZM0 0V131.25H93.75V112.5H112.5V93.75H131.25V37.5H112.5V18.75H93.75V0H0ZM75 112.5H37.5V18.75H75V37.5H93.75V93.75H75V112.5ZM168.75 131.25V112.5H150V18.75H168.75V0H262.5V18.75H281.25V112.5H262.5V131.25H168.75ZM187.5 112.5H243.75V18.75H187.5V112.5ZM1179 131.25V0H1216.5V56.25H1235.25V37.5H1254V18.75H1272.75V0H1310.25V18.75H1291.5V37.5H1272.75V56.25H1254V75H1272.75V93.75H1291.5V112.5H1310.25V131.25H1254V112.5H1235.25V93.75H1216.5V131.25H1179ZM205.5 313.5V332.25H299.25V257.25H243V276H261.75V313.5H224.25V294.75H205.5V238.5H224.25V219.75H299.25V201H205.5V219.75H186.75V238.5H168V294.75H186.75V313.5H205.5ZM318 332.25V238.5H336.75V219.75H355.5V201H411.75V219.75H430.5V238.5H449.25V332.25H411.75V294.75H355.5V332.25H318ZM355.5 276H411.75V238.5H393V219.75H374.25V238.5H355.5V276ZM468.75 332.25V201H492V216H506.25V313.5H581.25V332.25H468.75ZM727.5 201V332.25H858.75V313.5H765V276H840V257.25H765V219.75H858.75V208H851V201H727.5ZM877.5 332.25V201H990V219.75H1008.75V276H971.25V294.75H990V313.5H1008.75V332.25H952.5V313.5H933.75V294.75H915V332.25H877.5ZM915 276H952.5V257.25H971.25V219.75H915V276ZM1062.75 332.25V276H1044V257.25H1025.25V201H1062.75V257.25H1100.25V201H1137.75V257.25H1119V276H1100.25V332.25H1062.75ZM599 201V332.25H711.5V313.5H636.5V216H636H622.25H621V201H599ZM1029 0V131.25H1066.5V93.75H1085.25V112.5H1104V131.25H1160.25V112.5H1141.5V93.75H1122.75V75H1160.25V18.75H1141.5V0H1029ZM1104 75H1066.5V18.75H1122.75V56.25H1104V75ZM879 131.25V37.5H897.75V18.75H916.5V0H972.75V18.75H991.5V37.5H1010.25V131.25H972.75V93.75H916.5V131.25H879ZM916.5 75H972.75V37.5H954V18.75H935.25V37.5H916.5V75ZM729 0V131.25H766.5V75H822.75V131.25H860.25V15H846V0H822.75V56.25H766.5V0H729ZM597.75 131.25V112.5H579V93.75H616.5V112.5H672.75V75H597.75V56.25H579V18.75H597.75V0H691.5V18.75H710.25V37.5H672.75V18.75H616.5V56.25H691.5V75H710.25V112.5H691.5V131.25H597.75Z" fill="white"/>
</svg>
